<?xml version="1.0" encoding="iso-8859-1"?>
<!-- Generator: Adobe Illustrator 19.0.0, SVG Export Plug-In . SVG Version: 6.00 Build 0)  -->
<svg version="1.1" id="Capa_1" xmlns="http://www.w3.org/2000/svg" xmlns:xlink="http://www.w3.org/1999/xlink" x="0px" y="0px"
	 viewBox="0 0 512 512" style="enable-background:new 0 0 512 512;" xml:space="preserve">
<g>
	<g>
		<path d="M420.054,98.332c-5.129-20.869-20.444-37.165-40.961-43.57c-20.619-6.448-42.412-1.744-58.474,12.501l-25.542,22.576
			l122.407,44.551C421.803,123.04,423.067,110.595,420.054,98.332z"/>
	</g>
</g>
<g>
	<g>
		<path d="M279.027,52.125c-3.194-21.25-16.942-39.08-36.77-47.361c-19.828-8.295-42.031-5.643-59.412,7.049
			c-10.184,7.448-17.209,17.993-21.19,29.465l122.422,44.559L279.027,52.125z"/>
	</g>
</g>
<g>
	<g>
		<polygon points="215.409,252.466 215.409,512 245.423,512 245.423,263.39 		"/>
	</g>
</g>
<g>
	<g>
		<path d="M50.333,242.877c-8.295,0-15.007,6.712-15.007,15.007V466.98c0,24.825,20.195,45.021,45.021,45.021h105.048V242.877
			H50.333z"/>
	</g>
</g>
<g>
	<g>
		<path d="M275.437,274.315V512h105.048c24.825,0,45.021-20.195,45.021-45.021V328.935L275.437,274.315z"/>
	</g>
</g>
<g>
	<g>
		<rect x="200.191" y="157.943" transform="matrix(0.342 -0.9397 0.9397 0.342 8.6944 358.3267)" width="120.045" height="30.024"/>
	</g>
</g>
<g>
	<g>
		<path d="M449.965,178.145l-126.913-46.191l-41.06,112.807l155.121,56.459c1.686,0.615,3.43,0.908,5.129,0.908
			c6.126,0,11.885-3.781,14.098-9.878l20.531-56.408C485.411,212.412,473.3,186.649,449.965,178.145z"/>
	</g>
</g>
<g>
	<g>
		<path d="M111.534,54.968c-23.287-8.517-49.152,3.42-57.713,26.907l-20.517,56.408c-2.843,7.782,1.173,16.4,8.969,19.228
			l155.116,56.457l41.062-112.807L111.534,54.968z"/>
	</g>
</g>
<g>
</g>
<g>
</g>
<g>
</g>
<g>
</g>
<g>
</g>
<g>
</g>
<g>
</g>
<g>
</g>
<g>
</g>
<g>
</g>
<g>
</g>
<g>
</g>
<g>
</g>
<g>
</g>
<g>
</g>
</svg>
