<?xml version="1.0" ?><!DOCTYPE svg  PUBLIC '-//W3C//DTD SVG 1.1//EN'  'http://www.w3.org/Graphics/SVG/1.1/DTD/svg11.dtd'><svg height="512px" style="enable-background:new 0 0 512 512;" version="1.1" viewBox="0 0 512 512" width="512px" xml:space="preserve" xmlns="http://www.w3.org/2000/svg" xmlns:xlink="http://www.w3.org/1999/xlink"><g id="_x35_-xbox"><g><g><g><path d="M175.083,59.07c25.142,9.9,49.509,23.025,72.384,38.996c2.568,1.795,5.551,2.692,8.531,2.692      c2.982,0,5.967-0.897,8.531-2.692c22.902-15.998,47.273-29.129,72.385-39.028c5.727-2.245,9.486-7.804,9.453-13.997      c-0.027-6.191-3.842-11.695-9.6-13.875c-50.287-19.172-111.279-19.172-161.536,0c-5.728,2.18-9.571,7.716-9.604,13.875      C165.6,51.204,169.359,56.792,175.083,59.07L175.083,59.07z M175.083,59.07" style="fill:#5ACF5F;"/></g><path d="M391.195,59.126c-4.74-3.262-10.852-3.529-15.895-0.628     c-27.826,16.092-54.85,34.514-80.262,54.788c-3.369,2.691-5.426,6.698-5.611,11.034c-0.199,4.342,1.498,8.528,4.6,11.489     c52.73,50.392,125.863,204.825,142.59,275.91c-36.385-61.668-117.418-206.802-170.477-256.413     c-5.699-5.354-14.615-5.354-20.344,0c-53.113,49.645-133.912,194.896-170.3,256.592c16.733-71.052,89.657-225.67,142.416-276.089     c3.131-2.991,4.799-7.18,4.625-11.489c-0.18-4.304-2.207-8.343-5.582-11.034c-25.438-20.274-52.429-38.695-80.259-54.788     c-4.978-2.869-11.156-2.601-15.924,0.628C56.047,103.869,17.399,177.439,17.399,255.969c0,57.39,20.578,112.714,58.125,155.929     c44.888,52.932,110.656,83.317,180.474,83.317c69.826,0,135.586-30.386,180.652-83.496     c37.373-43.006,57.951-98.333,57.951-155.75C494.602,177.439,455.949,103.869,391.195,59.126L391.195,59.126z M391.195,59.126" style="fill:#5ACF5F;"/></g></g></g><g id="Layer_1"/></svg>